<?xml version="1.0" encoding="UTF-8"?>
<svg xmlns="http://www.w3.org/2000/svg" xmlns:xlink="http://www.w3.org/1999/xlink" width="2000" height="2000" viewBox="0 0 2000 2000">

<path fill-rule="evenodd" fill="rgb(83.201599%, 96.484375%, 92.576599%)" fill-opacity="1" d="M 1908.238281 1915.15625 L 1889.179688 1915.15625 C 1888.300781 1915.15625 1887.589844 1915.871094 1887.589844 1916.746094 L 1887.589844 1935.800781 C 1887.589844 1936.679688 1888.300781 1937.394531 1889.179688 1937.394531 L 1908.238281 1937.394531 C 1909.109375 1937.394531 1909.828125 1936.679688 1909.828125 1935.800781 L 1909.828125 1916.746094 C 1909.828125 1915.871094 1909.109375 1915.15625 1908.238281 1915.15625 "/>
<path fill-rule="evenodd" fill="rgb(83.201599%, 96.484375%, 92.576599%)" fill-opacity="1" d="M 1865.28125 1916.171875 L 1847.089844 1916.171875 C 1846.261719 1916.171875 1845.578125 1916.855469 1845.578125 1917.691406 L 1845.578125 1935.875 C 1845.578125 1936.710938 1846.261719 1937.394531 1847.089844 1937.394531 L 1865.28125 1937.394531 C 1866.109375 1937.394531 1866.800781 1936.710938 1866.800781 1935.875 L 1866.800781 1917.691406 C 1866.800781 1916.855469 1866.109375 1916.171875 1865.28125 1916.171875 "/>
<path fill-rule="evenodd" fill="rgb(83.201599%, 96.484375%, 92.576599%)" fill-opacity="1" d="M 1822.320312 1917.1875 L 1805.011719 1917.1875 C 1804.210938 1917.1875 1803.558594 1917.839844 1803.558594 1918.636719 L 1803.558594 1935.949219 C 1803.558594 1936.742188 1804.210938 1937.394531 1805.011719 1937.394531 L 1822.320312 1937.394531 C 1823.121094 1937.394531 1823.769531 1936.742188 1823.769531 1935.949219 L 1823.769531 1918.636719 C 1823.769531 1917.839844 1823.121094 1917.1875 1822.320312 1917.1875 "/>
<path fill-rule="evenodd" fill="rgb(83.201599%, 96.484375%, 92.576599%)" fill-opacity="1" d="M 1779.371094 1918.207031 L 1762.929688 1918.207031 C 1762.171875 1918.207031 1761.550781 1918.824219 1761.550781 1919.582031 L 1761.550781 1936.019531 C 1761.550781 1936.777344 1762.171875 1937.394531 1762.929688 1937.394531 L 1779.371094 1937.394531 C 1780.121094 1937.394531 1780.738281 1936.777344 1780.738281 1936.019531 L 1780.738281 1919.582031 C 1780.738281 1918.824219 1780.121094 1918.207031 1779.371094 1918.207031 "/>
<path fill-rule="evenodd" fill="rgb(83.201599%, 96.484375%, 92.576599%)" fill-opacity="1" d="M 1736.410156 1919.222656 L 1720.839844 1919.222656 C 1720.128906 1919.222656 1719.539062 1919.808594 1719.539062 1920.523438 L 1719.539062 1936.09375 C 1719.539062 1936.808594 1720.128906 1937.394531 1720.839844 1937.394531 L 1736.410156 1937.394531 C 1737.128906 1937.394531 1737.710938 1936.808594 1737.710938 1936.09375 L 1737.710938 1920.523438 C 1737.710938 1919.808594 1737.128906 1919.222656 1736.410156 1919.222656 "/>
<path fill-rule="evenodd" fill="rgb(83.201599%, 96.484375%, 92.576599%)" fill-opacity="1" d="M 1693.460938 1920.238281 L 1678.761719 1920.238281 C 1678.078125 1920.238281 1677.53125 1920.792969 1677.53125 1921.46875 L 1677.53125 1936.167969 C 1677.53125 1936.84375 1678.078125 1937.394531 1678.761719 1937.394531 L 1693.460938 1937.394531 C 1694.128906 1937.394531 1694.679688 1936.84375 1694.679688 1936.167969 L 1694.679688 1921.46875 C 1694.679688 1920.792969 1694.128906 1920.238281 1693.460938 1920.238281 "/>
<path fill-rule="evenodd" fill="rgb(83.201599%, 96.484375%, 92.576599%)" fill-opacity="1" d="M 1650.5 1921.257812 L 1636.671875 1921.257812 C 1636.039062 1921.257812 1635.519531 1921.777344 1635.519531 1922.414062 L 1635.519531 1936.238281 C 1635.519531 1936.875 1636.039062 1937.394531 1636.671875 1937.394531 L 1650.5 1937.394531 C 1651.140625 1937.394531 1651.648438 1936.875 1651.648438 1936.238281 L 1651.648438 1922.414062 C 1651.648438 1921.777344 1651.140625 1921.257812 1650.5 1921.257812 "/>
<path fill-rule="evenodd" fill="rgb(83.201599%, 96.484375%, 92.576599%)" fill-opacity="1" d="M 1607.539062 1922.273438 L 1594.589844 1922.273438 C 1593.988281 1922.273438 1593.511719 1922.761719 1593.511719 1923.355469 L 1593.511719 1936.3125 C 1593.511719 1936.90625 1593.988281 1937.394531 1594.589844 1937.394531 L 1607.539062 1937.394531 C 1608.140625 1937.394531 1608.628906 1936.90625 1608.628906 1936.3125 L 1608.628906 1923.355469 C 1608.628906 1922.761719 1608.140625 1922.273438 1607.539062 1922.273438 "/>
<path fill-rule="evenodd" fill="rgb(83.201599%, 96.484375%, 92.576599%)" fill-opacity="1" d="M 1564.589844 1923.292969 L 1552.5 1923.292969 C 1551.949219 1923.292969 1551.488281 1923.746094 1551.488281 1924.300781 L 1551.488281 1936.386719 C 1551.488281 1936.941406 1551.949219 1937.394531 1552.5 1937.394531 L 1564.589844 1937.394531 C 1565.140625 1937.394531 1565.601562 1936.941406 1565.601562 1936.386719 L 1565.601562 1924.300781 C 1565.601562 1923.746094 1565.140625 1923.292969 1564.589844 1923.292969 "/>
<path fill="none" stroke-width="359.999" stroke-linecap="round" stroke-linejoin="round" stroke="rgb(33.325195%, 13.719177%, 26.268005%)" stroke-opacity="1" stroke-miterlimit="2.61313" d="M 7500.820312 17273.710938 L 7281.40625 16292.109375 " transform="matrix(0.1, 0, 0, -0.1, 0, 2000)"/>
<path fill="none" stroke-width="359.999" stroke-linecap="round" stroke-linejoin="round" stroke="rgb(33.325195%, 13.719177%, 26.268005%)" stroke-opacity="1" stroke-miterlimit="2.61313" d="M 7881.875 16673.203125 L 6900.351562 16892.617188 " transform="matrix(0.1, 0, 0, -0.1, 0, 2000)"/>
<path fill="none" stroke-width="159.999" stroke-linecap="round" stroke-linejoin="round" stroke="rgb(33.325195%, 13.719177%, 26.268005%)" stroke-opacity="1" stroke-miterlimit="2.61313" d="M 8814.21875 17854.804688 L 8472.890625 17638.203125 " transform="matrix(0.1, 0, 0, -0.1, 0, 2000)"/>
<path fill="none" stroke-width="159.999" stroke-linecap="round" stroke-linejoin="round" stroke="rgb(33.325195%, 13.719177%, 26.268005%)" stroke-opacity="1" stroke-miterlimit="2.61313" d="M 8751.835938 17575.898438 L 8535.273438 17917.1875 " transform="matrix(0.1, 0, 0, -0.1, 0, 2000)"/>
<path fill="none" stroke-width="239.998" stroke-linecap="round" stroke-linejoin="round" stroke="rgb(33.325195%, 13.719177%, 26.268005%)" stroke-opacity="1" stroke-miterlimit="2.61313" d="M 6570.078125 16187.304688 L 6576.523438 16185.898438 " transform="matrix(0.1, 0, 0, -0.1, 0, 2000)"/>
<path fill="none" stroke-width="159.999" stroke-linecap="round" stroke-linejoin="round" stroke="rgb(33.325195%, 13.719177%, 26.268005%)" stroke-opacity="1" stroke-miterlimit="2.61313" d="M 7796.132812 17136.09375 L 7802.617188 17134.6875 " transform="matrix(0.1, 0, 0, -0.1, 0, 2000)"/>
<path fill="none" stroke-width="463.896" stroke-linecap="round" stroke-linejoin="round" stroke="rgb(33.325195%, 13.719177%, 26.268005%)" stroke-opacity="1" stroke-miterlimit="2.61313" d="M 10269.287615 -9312.34365 L 10257.280845 -9316.841674 " transform="matrix(0.0194426, -0.0805574, -0.0805574, -0.0194426, 0, 2000)"/>
<path fill="none" stroke-width="463.9" stroke-linecap="round" stroke-linejoin="round" stroke="rgb(33.325195%, 13.719177%, 26.268005%)" stroke-opacity="1" stroke-miterlimit="2.61313" d="M -10292.58774 8157.403787 C -10213.106841 7945.821382 -10320.201309 7709.865702 -10531.783713 7630.384803 C -10743.41194 7550.892845 -10979.413441 7657.976253 -11058.905399 7869.604479 C -11138.386298 8081.186884 -11031.291831 8317.142565 -10819.617784 8396.645582 C -10607.989557 8476.13754 -10372.079698 8369.032013 -10292.58774 8157.403787 Z M -10292.58774 8157.403787 " transform="matrix(-0.0194426, 0.0805574, 0.0805574, 0.0194426, 0, 2000)"/>
<path fill-rule="evenodd" fill="rgb(33.325195%, 13.719177%, 26.268005%)" fill-opacity="1" d="M 994.171875 1533.171875 C 984.753906 1534.332031 976.175781 1527.636719 975.019531 1518.21875 C 973.859375 1508.796875 980.554688 1500.222656 989.972656 1499.0625 C 999.394531 1497.902344 1007.96875 1504.597656 1009.128906 1514.019531 C 1010.289062 1523.4375 1003.589844 1532.011719 994.171875 1533.171875 "/>
<path fill="none" stroke-width="384.438" stroke-linecap="round" stroke-linejoin="round" stroke="rgb(33.325195%, 13.719177%, 26.268005%)" stroke-opacity="1" stroke-miterlimit="2.61313" d="M 9941.71875 4668.28125 C 9847.539062 4656.679688 9761.757812 4723.632812 9750.195312 4817.8125 C 9738.59375 4912.03125 9805.546875 4997.773438 9899.726562 5009.375 C 9993.945312 5020.976562 10079.6875 4954.023438 10091.289062 4859.804688 C 10102.890625 4765.625 10035.898438 4679.882812 9941.71875 4668.28125 Z M 9941.71875 4668.28125 " transform="matrix(0.1, 0, 0, -0.1, 0, 2000)"/>
<path fill-rule="evenodd" fill="rgb(89.84375%, 74.021912%, 83.201599%)" fill-opacity="1" d="M 1238.910156 678.960938 C 1312.789062 661.53125 1306.449219 653.378906 1271.289062 720.640625 C 1310.699219 785.511719 1316.488281 776.96875 1241.648438 764.320312 C 1192.140625 821.839844 1202.050781 824.710938 1190.960938 749.628906 C 1120.949219 720.308594 1121.28125 730.621094 1189.261719 696.871094 C 1195.511719 621.230469 1185.800781 624.730469 1238.910156 678.960938 "/>
<path fill-rule="evenodd" fill="rgb(85.15625%, 59.179688%, 73.242188%)" fill-opacity="1" d="M 1238.910156 678.960938 C 1312.789062 661.53125 1306.449219 653.378906 1271.289062 720.640625 C 1306.359375 778.371094 1314.808594 777.960938 1263.511719 768.261719 C 1245.230469 723.320312 1223.449219 680.191406 1198.441406 639.230469 C 1204.148438 640.828125 1215.339844 654.890625 1238.910156 678.960938 "/>
<path fill-rule="evenodd" fill="rgb(91.014099%, 62.304688%, 62.304688%)" fill-opacity="1" d="M 446.347656 638.140625 C 532.214844 599.5 522.578125 591.058594 495.609375 681.28125 C 558.902344 751 563.945312 739.230469 469.8125 741.460938 C 423.0625 823.199219 435.816406 824.359375 404.601562 735.519531 C 312.421875 716.320312 315.257812 728.808594 390.101562 671.671875 C 379.878906 578.058594 368.878906 584.621094 446.347656 638.140625 "/>
<path fill-rule="evenodd" fill="rgb(91.014099%, 62.304688%, 62.304688%)" fill-opacity="1" d="M 446.347656 638.140625 C 532.214844 599.5 522.578125 591.058594 495.609375 681.28125 C 558.902344 751 563.945312 739.230469 469.8125 741.460938 C 423.0625 823.199219 435.816406 824.359375 404.601562 735.519531 C 312.421875 716.320312 315.257812 728.808594 390.101562 671.671875 C 379.878906 578.058594 368.878906 584.621094 446.347656 638.140625 "/>
<path fill-rule="evenodd" fill="rgb(94.921875%, 87.5%, 82.03125%)" fill-opacity="1" d="M 1458.019531 1162.632812 C 1728.289062 1169.203125 1713.820312 1135.398438 1531.988281 1335.460938 C 1609.261719 1594.53125 1636.941406 1570.324219 1390.480469 1459.21875 C 1167.96875 1612.761719 1199.539062 1631.605469 1229.050781 1362.875 C 1014.261719 1198.699219 1006.101562 1234.550781 1270.789062 1179.574219 C 1360.558594 924.570312 1323.941406 927.878906 1458.019531 1162.632812 "/>
<path fill-rule="evenodd" fill="rgb(94.139099%, 79.296875%, 68.943787%)" fill-opacity="1" d="M 1458.019531 1162.632812 C 1728.289062 1169.203125 1713.820312 1135.398438 1531.988281 1335.460938 C 1609.261719 1594.53125 1636.941406 1570.324219 1390.480469 1459.21875 C 1255.039062 1552.679688 1213.738281 1596.222656 1208.808594 1555.394531 C 1285.449219 1423.261719 1329.351562 1269.78125 1329.351562 1106.035156 C 1329.351562 1076.933594 1327.910156 1048.175781 1325.199219 1019.785156 C 1353.878906 947.070312 1363.859375 997.78125 1458.019531 1162.632812 "/>
<path fill-rule="nonzero" fill="rgb(94.921875%, 92.96875%, 47.459412%)" fill-opacity="1" d="M 886.914062 598.289062 C 895.140625 606.519531 895.128906 619.871094 886.898438 628.089844 C 878.664062 636.308594 865.324219 636.300781 857.101562 628.070312 L 775.261719 546.03125 C 767.039062 537.800781 767.046875 524.460938 775.28125 516.230469 C 783.511719 508.011719 796.851562 508.019531 805.074219 516.25 L 886.914062 598.289062 "/>
<path fill-rule="nonzero" fill="rgb(94.921875%, 92.96875%, 47.459412%)" fill-opacity="1" d="M 886.914062 598.289062 C 895.140625 606.519531 895.128906 619.871094 886.898438 628.089844 C 878.664062 636.308594 865.324219 636.300781 857.101562 628.070312 L 775.261719 546.03125 C 767.039062 537.800781 767.046875 524.460938 775.28125 516.230469 C 783.511719 508.011719 796.851562 508.019531 805.074219 516.25 L 886.914062 598.289062 "/>
<path fill-rule="nonzero" fill="rgb(94.921875%, 92.96875%, 47.459412%)" fill-opacity="1" d="M 715.71875 769.488281 C 723.941406 777.71875 723.933594 791.058594 715.699219 799.289062 C 707.464844 807.511719 694.125 807.5 685.902344 799.269531 L 604.0625 717.230469 C 595.839844 708.988281 595.847656 695.648438 604.082031 687.429688 C 612.3125 679.210938 625.65625 679.21875 633.878906 687.449219 L 715.71875 769.488281 "/>
<path fill-rule="nonzero" fill="rgb(94.921875%, 92.96875%, 47.459412%)" fill-opacity="1" d="M 715.71875 769.488281 C 723.941406 777.71875 723.933594 791.058594 715.699219 799.289062 C 707.464844 807.511719 694.125 807.5 685.902344 799.269531 L 604.0625 717.230469 C 595.839844 708.988281 595.847656 695.648438 604.082031 687.429688 C 612.3125 679.210938 625.65625 679.21875 633.878906 687.449219 L 715.71875 769.488281 "/>
<path fill-rule="nonzero" fill="rgb(94.921875%, 87.5%, 82.03125%)" fill-opacity="1" d="M 655.960938 538.53125 C 664.183594 546.769531 664.171875 560.109375 655.941406 568.328125 C 647.707031 576.550781 634.367188 576.539062 626.144531 568.308594 L 544.304688 486.269531 C 536.082031 478.039062 536.089844 464.699219 544.324219 456.46875 C 552.554688 448.25 565.894531 448.261719 574.117188 456.488281 L 655.960938 538.53125 "/>
<path fill-rule="nonzero" fill="rgb(94.921875%, 87.5%, 82.03125%)" fill-opacity="1" d="M 655.960938 538.53125 C 664.183594 546.769531 664.171875 560.109375 655.941406 568.328125 C 647.707031 576.550781 634.367188 576.539062 626.144531 568.308594 L 544.304688 486.269531 C 536.082031 478.039062 536.089844 464.699219 544.324219 456.46875 C 552.554688 448.25 565.894531 448.261719 574.117188 456.488281 L 655.960938 538.53125 "/>
<path fill-rule="nonzero" fill="rgb(94.921875%, 92.96875%, 47.459412%)" fill-opacity="1" d="M 1213.761719 1096.339844 C 1221.988281 1104.570312 1221.980469 1117.910156 1213.75 1126.132812 C 1205.511719 1134.355469 1192.171875 1134.347656 1183.949219 1126.117188 L 1020.171875 962.128906 C 1011.949219 953.898438 1011.949219 940.558594 1020.191406 932.339844 C 1028.421875 924.121094 1041.761719 924.121094 1049.980469 932.359375 L 1213.761719 1096.339844 "/>
<path fill-rule="nonzero" fill="rgb(94.921875%, 92.96875%, 47.459412%)" fill-opacity="1" d="M 1213.761719 1096.339844 C 1221.988281 1104.570312 1221.980469 1117.910156 1213.75 1126.132812 C 1205.511719 1134.355469 1192.171875 1134.347656 1183.949219 1126.117188 L 1020.171875 962.128906 C 1011.949219 953.898438 1011.949219 940.558594 1020.191406 932.339844 C 1028.421875 924.121094 1041.761719 924.121094 1049.980469 932.359375 L 1213.761719 1096.339844 "/>
<path fill-rule="nonzero" fill="rgb(63.084412%, 52.146912%, 52.146912%)" fill-opacity="1" d="M 989.269531 871.839844 C 997.492188 880.070312 997.484375 893.421875 989.25 901.640625 C 981.015625 909.859375 967.675781 909.851562 959.453125 901.621094 L 795.671875 737.640625 C 787.449219 729.410156 787.457031 716.058594 795.691406 707.839844 C 803.925781 699.621094 817.265625 699.628906 825.488281 707.859375 L 989.269531 871.839844 "/>
<path fill-rule="nonzero" fill="rgb(63.084412%, 52.146912%, 52.146912%)" fill-opacity="1" d="M 989.269531 871.839844 C 997.492188 880.070312 997.484375 893.421875 989.25 901.640625 C 981.015625 909.859375 967.675781 909.851562 959.453125 901.621094 L 795.671875 737.640625 C 787.449219 729.410156 787.457031 716.058594 795.691406 707.839844 C 803.925781 699.621094 817.265625 699.628906 825.488281 707.859375 L 989.269531 871.839844 "/>
<path fill-rule="nonzero" fill="rgb(94.921875%, 87.5%, 82.03125%)" fill-opacity="1" d="M 1242.839844 954.210938 C 1251.058594 962.441406 1251.050781 975.78125 1242.820312 984.011719 C 1234.578125 992.230469 1221.238281 992.21875 1213.019531 983.988281 L 953.949219 724.71875 C 945.726562 716.488281 945.734375 703.140625 953.96875 694.921875 C 962.203125 686.699219 975.542969 686.710938 983.765625 694.941406 L 1242.839844 954.210938 "/>
<path fill-rule="nonzero" fill="rgb(94.921875%, 87.5%, 82.03125%)" fill-opacity="1" d="M 1242.839844 954.210938 C 1251.058594 962.441406 1251.050781 975.78125 1242.820312 984.011719 C 1234.578125 992.230469 1221.238281 992.21875 1213.019531 983.988281 L 953.949219 724.71875 C 945.726562 716.488281 945.734375 703.140625 953.96875 694.921875 C 962.203125 686.699219 975.542969 686.710938 983.765625 694.941406 L 1242.839844 954.210938 "/>
<path fill-rule="nonzero" fill="rgb(94.921875%, 87.5%, 82.03125%)" fill-opacity="1" d="M 1034.488281 1088.261719 C 1042.710938 1096.492188 1042.699219 1109.835938 1034.46875 1118.058594 C 1026.238281 1126.28125 1012.898438 1126.269531 1004.671875 1118.039062 L 745.605469 858.769531 C 737.378906 850.53125 737.390625 837.191406 745.621094 828.96875 C 753.855469 820.75 767.195312 820.761719 775.417969 828.988281 L 1034.488281 1088.261719 "/>
<path fill-rule="nonzero" fill="rgb(94.921875%, 87.5%, 82.03125%)" fill-opacity="1" d="M 1034.488281 1088.261719 C 1042.710938 1096.492188 1042.699219 1109.835938 1034.46875 1118.058594 C 1026.238281 1126.28125 1012.898438 1126.269531 1004.671875 1118.039062 L 745.605469 858.769531 C 737.378906 850.53125 737.390625 837.191406 745.621094 828.96875 C 753.855469 820.75 767.195312 820.761719 775.417969 828.988281 L 1034.488281 1088.261719 "/>
<path fill-rule="evenodd" fill="rgb(91.014099%, 62.304688%, 62.304688%)" fill-opacity="1" d="M 690.578125 602.851562 C 709.308594 584.121094 739.679688 584.121094 758.410156 602.851562 C 777.140625 621.578125 777.140625 651.949219 758.410156 670.679688 C 739.679688 689.410156 709.308594 689.410156 690.578125 670.679688 C 671.84375 651.949219 671.84375 621.578125 690.578125 602.851562 "/>
<path fill-rule="evenodd" fill="rgb(91.014099%, 62.304688%, 62.304688%)" fill-opacity="1" d="M 690.578125 602.851562 C 709.308594 584.121094 739.679688 584.121094 758.410156 602.851562 C 777.140625 621.578125 777.140625 651.949219 758.410156 670.679688 C 739.679688 689.410156 709.308594 689.410156 690.578125 670.679688 C 671.84375 651.949219 671.84375 621.578125 690.578125 602.851562 "/>
<path fill-rule="evenodd" fill="rgb(94.921875%, 92.96875%, 47.459412%)" fill-opacity="1" d="M 1024.101562 448 C 1049 423.109375 1089.359375 423.109375 1114.25 448 C 1139.140625 472.898438 1139.140625 513.261719 1114.25 538.148438 C 1089.359375 563.039062 1049 563.039062 1024.101562 538.148438 C 999.210938 513.261719 999.210938 472.898438 1024.101562 448 "/>
<path fill-rule="evenodd" fill="rgb(91.40625%, 89.0625%, 20.384216%)" fill-opacity="1" d="M 1033.460938 440.269531 C 1058.261719 423.460938 1092.28125 426.03125 1114.25 448 C 1136.820312 470.570312 1138.929688 505.851562 1120.578125 530.789062 C 1093.660156 498.628906 1064.558594 468.371094 1033.460938 440.269531 "/>
<path fill-rule="evenodd" fill="rgb(94.921875%, 92.96875%, 47.459412%)" fill-opacity="1" d="M 749.121094 1032.972656 C 769.777344 1012.316406 803.269531 1012.316406 823.925781 1032.972656 C 844.582031 1053.628906 844.582031 1087.121094 823.925781 1107.777344 C 803.269531 1128.433594 769.777344 1128.433594 749.121094 1107.777344 C 728.464844 1087.121094 728.464844 1053.628906 749.121094 1032.972656 "/>
<path fill-rule="evenodd" fill="rgb(94.921875%, 92.96875%, 47.459412%)" fill-opacity="1" d="M 749.121094 1032.972656 C 769.777344 1012.316406 803.269531 1012.316406 823.925781 1032.972656 C 844.582031 1053.628906 844.582031 1087.121094 823.925781 1107.777344 C 803.269531 1128.433594 769.777344 1128.433594 749.121094 1107.777344 C 728.464844 1087.121094 728.464844 1053.628906 749.121094 1032.972656 "/>
<path fill="none" stroke-width="400" stroke-linecap="round" stroke-linejoin="round" stroke="rgb(33.325195%, 13.719177%, 26.268005%)" stroke-opacity="1" stroke-miterlimit="22.9256" d="M 11909.101562 13546.40625 C 12647.8125 13720.703125 12584.492188 13802.1875 12232.890625 13129.609375 C 12626.992188 12480.898438 12684.882812 12566.289062 11936.484375 12692.8125 C 11441.289062 12117.617188 11540.507812 12088.90625 11429.609375 12839.6875 C 10729.492188 13132.890625 10732.8125 13029.804688 11412.617188 13367.304688 C 11475.117188 14123.710938 11378.007812 14088.710938 11909.101562 13546.40625 Z M 11909.101562 13546.40625 " transform="matrix(0.1, 0, 0, -0.1, 0, 2000)"/>
<path fill="none" stroke-width="400" stroke-linecap="round" stroke-linejoin="round" stroke="rgb(33.325195%, 13.719177%, 26.268005%)" stroke-opacity="1" stroke-miterlimit="22.9256" d="M 3983.4375 13954.609375 C 4842.109375 14341.015625 4745.742188 14425.390625 4476.09375 13523.203125 C 5108.984375 12826.015625 5159.453125 12943.710938 4218.085938 12921.40625 C 3750.585938 12103.984375 3878.125 12092.382812 3566.015625 12980.78125 C 2644.179688 13172.8125 2672.539062 13048.007812 3420.976562 13619.296875 C 3318.789062 14555.390625 3208.75 14489.804688 3983.4375 13954.609375 Z M 3983.4375 13954.609375 " transform="matrix(0.1, 0, 0, -0.1, 0, 2000)"/>
<path fill="none" stroke-width="400" stroke-linecap="round" stroke-linejoin="round" stroke="rgb(33.325195%, 13.719177%, 26.268005%)" stroke-opacity="1" stroke-miterlimit="22.9256" d="M 14100.195312 8709.6875 C 16802.8125 8643.984375 16658.203125 8982.03125 14839.882812 6981.40625 C 15612.617188 4390.703125 15889.296875 4632.773438 13424.804688 5743.828125 C 11199.609375 4208.398438 11515.390625 4019.960938 11810.390625 6707.265625 C 9662.578125 8349.023438 9580.9375 7990.507812 12227.890625 8540.273438 C 13125.585938 11090.390625 12759.414062 11057.1875 14100.195312 8709.6875 Z M 14100.195312 8709.6875 " transform="matrix(0.1, 0, 0, -0.1, 0, 2000)"/>
<path fill="none" stroke-width="400" stroke-linecap="round" stroke-linejoin="round" stroke="rgb(33.325195%, 13.719177%, 26.268005%)" stroke-opacity="1" stroke-miterlimit="22.9256" d="M 8389.140625 14353.085938 C 8471.367188 14270.78125 8471.289062 14137.382812 8388.945312 14055.117188 C 8306.640625 13972.890625 8173.203125 13973.007812 8090.976562 14055.3125 L 7272.578125 14875.703125 C 7190.351562 14958.085938 7190.46875 15091.484375 7272.773438 15173.710938 C 7355.117188 15255.898438 7488.515625 15255.78125 7570.742188 15173.515625 Z M 8389.140625 14353.085938 " transform="matrix(0.1, 0, 0, -0.1, 0, 2000)"/>
<path fill="none" stroke-width="400" stroke-linecap="round" stroke-linejoin="round" stroke="rgb(33.325195%, 13.719177%, 26.268005%)" stroke-opacity="1" stroke-miterlimit="22.9256" d="M 6677.148438 12641.09375 C 6759.375 12558.789062 6759.296875 12425.390625 6676.953125 12343.203125 C 6594.648438 12260.898438 6461.25 12261.015625 6379.023438 12343.28125 L 5560.625 13163.710938 C 5478.398438 13246.09375 5478.476562 13379.492188 5560.78125 13461.71875 C 5643.125 13543.90625 5776.523438 13543.90625 5858.75 13461.484375 Z M 6677.148438 12641.09375 " transform="matrix(0.1, 0, 0, -0.1, 0, 2000)"/>
<path fill="none" stroke-width="400" stroke-linecap="round" stroke-linejoin="round" stroke="rgb(33.325195%, 13.719177%, 26.268005%)" stroke-opacity="1" stroke-miterlimit="22.9256" d="M 6079.570312 14950.703125 C 6161.796875 14868.398438 6161.71875 14734.882812 6079.375 14652.695312 C 5997.03125 14570.507812 5863.632812 14570.585938 5781.40625 14652.890625 L 4963.007812 15473.28125 C 4880.78125 15555.585938 4880.898438 15689.101562 4963.203125 15771.289062 C 5045.546875 15853.515625 5178.945312 15853.398438 5261.171875 15771.09375 Z M 6079.570312 14950.703125 " transform="matrix(0.1, 0, 0, -0.1, 0, 2000)"/>
<path fill="none" stroke-width="400" stroke-linecap="round" stroke-linejoin="round" stroke="rgb(33.325195%, 13.719177%, 26.268005%)" stroke-opacity="1" stroke-miterlimit="22.9256" d="M 11657.617188 9372.65625 C 11739.804688 9290.3125 11739.804688 9156.914062 11657.382812 9074.6875 C 11575.117188 8992.421875 11441.71875 8992.539062 11359.492188 9074.84375 L 9721.679688 10714.6875 C 9639.453125 10796.992188 9639.53125 10930.390625 9721.875 11012.617188 C 9804.179688 11094.882812 9937.578125 11094.804688 10019.804688 11012.5 Z M 11657.617188 9372.65625 " transform="matrix(0.1, 0, 0, -0.1, 0, 2000)"/>
<path fill="none" stroke-width="400" stroke-linecap="round" stroke-linejoin="round" stroke="rgb(33.325195%, 13.719177%, 26.268005%)" stroke-opacity="1" stroke-miterlimit="22.9256" d="M 9412.65625 11617.617188 C 9494.882812 11535.3125 9494.804688 11401.914062 9412.460938 11319.609375 C 9330.15625 11237.382812 9196.757812 11237.5 9114.53125 11319.804688 L 7476.71875 12959.609375 C 7394.492188 13041.992188 7394.570312 13175.390625 7476.914062 13257.617188 C 7559.21875 13339.804688 7692.617188 13339.6875 7774.84375 13257.382812 Z M 9412.65625 11617.617188 " transform="matrix(0.1, 0, 0, -0.1, 0, 2000)"/>
<path fill="none" stroke-width="400" stroke-linecap="round" stroke-linejoin="round" stroke="rgb(33.325195%, 13.719177%, 26.268005%)" stroke-opacity="1" stroke-miterlimit="22.9256" d="M 11948.28125 10793.90625 C 12030.585938 10711.601562 12030.507812 10578.203125 11948.085938 10495.898438 C 11865.78125 10413.710938 11732.382812 10413.789062 11650.195312 10496.09375 L 9059.492188 13088.789062 C 8977.265625 13171.210938 8977.34375 13304.609375 9059.6875 13386.796875 C 9141.992188 13468.984375 9275.390625 13468.90625 9357.65625 13386.601562 Z M 11948.28125 10793.90625 " transform="matrix(0.1, 0, 0, -0.1, 0, 2000)"/>
<path fill="none" stroke-width="400" stroke-linecap="round" stroke-linejoin="round" stroke="rgb(33.325195%, 13.719177%, 26.268005%)" stroke-opacity="1" stroke-miterlimit="22.9256" d="M 9864.84375 9453.398438 C 9947.109375 9371.09375 9946.992188 9237.695312 9864.6875 9155.46875 C 9782.34375 9073.203125 9648.945312 9073.28125 9566.71875 9155.625 L 6976.015625 11748.28125 C 6893.789062 11830.703125 6893.867188 11964.101562 6976.210938 12046.289062 C 7058.515625 12128.515625 7191.953125 12128.515625 7274.140625 12046.09375 Z M 9864.84375 9453.398438 " transform="matrix(0.1, 0, 0, -0.1, 0, 2000)"/>
<path fill="none" stroke-width="400" stroke-linecap="round" stroke-linejoin="round" stroke="rgb(33.325195%, 13.719177%, 26.268005%)" stroke-opacity="1" stroke-miterlimit="22.9256" d="M 6425.742188 14307.5 C 6613.046875 14494.882812 6916.757812 14494.882812 7104.0625 14307.5 C 7291.40625 14120.195312 7291.40625 13816.484375 7104.0625 13629.21875 C 6916.757812 13441.914062 6613.046875 13441.914062 6425.742188 13629.21875 C 6238.4375 13816.484375 6238.4375 14120.195312 6425.742188 14307.5 Z M 6425.742188 14307.5 " transform="matrix(0.1, 0, 0, -0.1, 0, 2000)"/>
<path fill="none" stroke-width="399.999" stroke-linecap="round" stroke-linejoin="round" stroke="rgb(33.325195%, 13.719177%, 26.268005%)" stroke-opacity="1" stroke-miterlimit="22.9256" d="M 9761.015625 15856.015625 C 10009.882812 16104.882812 10413.59375 16104.882812 10662.5 15856.015625 C 10911.40625 15606.992188 10911.40625 15203.398438 10662.5 14954.492188 C 10413.59375 14705.585938 10009.882812 14705.585938 9761.015625 14954.492188 C 9512.070312 15203.398438 9512.070312 15606.992188 9761.015625 15856.015625 Z M 9761.015625 15856.015625 " transform="matrix(0.1, 0, 0, -0.1, 0, 2000)"/>
<path fill="none" stroke-width="399.999" stroke-linecap="round" stroke-linejoin="round" stroke="rgb(33.325195%, 13.719177%, 26.268005%)" stroke-opacity="1" stroke-miterlimit="22.9256" d="M 7011.210938 10006.289062 C 7217.773438 10212.8125 7552.65625 10212.8125 7759.257812 10006.289062 C 7965.78125 9799.726562 7965.78125 9464.804688 7759.257812 9258.242188 C 7552.65625 9051.679688 7217.773438 9051.679688 7011.210938 9258.242188 C 6804.648438 9464.804688 6804.648438 9799.726562 7011.210938 10006.289062 Z M 7011.210938 10006.289062 " transform="matrix(0.1, 0, 0, -0.1, 0, 2000)"/>
</svg>
